<?xml version="1.0" standalone="no"?>
<!DOCTYPE svg PUBLIC "-//W3C//DTD SVG 20010904//EN"
 "http://www.w3.org/TR/2001/REC-SVG-20010904/DTD/svg10.dtd">
<svg version="1.0" xmlns="http://www.w3.org/2000/svg"
 width="482.000000pt" height="482.000000pt" viewBox="0 0 482.000000 482.000000"
 preserveAspectRatio="xMidYMid meet">
<metadata>
Created by potrace 1.11, written by Peter Selinger 2001-2013
</metadata>
<g transform="translate(0.000000,482.000000) scale(0.100000,-0.100000)"
fill="#000000" stroke="none">
<path d="M2632 4071 c-61 -21 -114 -61 -159 -120 -64 -83 -63 -72 -63 -843 l0
-698 -705 0 c-686 0 -706 -1 -759 -21 -73 -27 -148 -96 -183 -167 l-28 -57 0
-590 0 -590 26 -56 c34 -72 96 -134 168 -168 l56 -26 585 0 585 0 67 33 c73
36 123 86 160 161 l23 46 3 717 3 717 712 3 712 3 67 33 c75 36 123 88 160
168 l23 49 0 585 0 585 -26 55 c-36 77 -77 121 -151 161 l-63 34 -580 2 c-542
3 -583 2 -633 -16z"/>
</g>
</svg>
