<?xml version="1.0" standalone="no"?>
<!DOCTYPE svg PUBLIC "-//W3C//DTD SVG 20010904//EN"
 "http://www.w3.org/TR/2001/REC-SVG-20010904/DTD/svg10.dtd">
<svg version="1.0" xmlns="http://www.w3.org/2000/svg"
 width="222.000000pt" height="222.000000pt" viewBox="0 0 222.000000 222.000000"
 preserveAspectRatio="xMidYMid meet">
<metadata>
Created by potrace 1.11, written by Peter Selinger 2001-2013
</metadata>
<g transform="translate(0.000000,222.000000) scale(0.100000,-0.100000)"
fill="#000000" stroke="none">
<path d="M111 2203 c-43 -14 -89 -65 -97 -108 -7 -38 0 -853 8 -880 3 -11 11
-40 18 -65 57 -215 241 -431 447 -526 l63 -29 0 -195 c0 -184 2 -198 24 -246
34 -73 93 -123 166 -141 26 -6 743 -5 780 2 121 21 224 62 322 127 63 42 168
142 215 203 74 97 137 245 151 355 4 30 7 239 7 465 l0 410 -23 33 c-45 62
-61 66 -324 66 l-236 1 -35 70 c-120 243 -340 407 -617 461 -67 13 -829 11
-869 -3z m1432 -668 c9 -14 12 -128 12 -407 l0 -388 -31 -30 c-17 -17 -46 -35
-65 -39 -34 -7 -683 -5 -729 2 -14 3 -34 5 -44 6 -18 1 -19 9 -13 154 7 187
27 262 105 385 60 98 174 203 277 259 60 32 158 63 223 69 31 4 58 7 59 8 1 1
45 1 98 1 86 0 98 -2 108 -20z"/>
</g>
</svg>
