<?xml version="1.0" standalone="no"?>
<!DOCTYPE svg PUBLIC "-//W3C//DTD SVG 20010904//EN"
 "http://www.w3.org/TR/2001/REC-SVG-20010904/DTD/svg10.dtd">
<svg version="1.0" xmlns="http://www.w3.org/2000/svg"
 width="512.000000pt" height="512.000000pt" viewBox="0 0 512.000000 512.000000"
 preserveAspectRatio="xMidYMid meet">
<metadata>
Created by potrace 1.11, written by Peter Selinger 2001-2013
</metadata>
<g transform="translate(0.000000,512.000000) scale(0.100000,-0.100000)"
fill="#000000" stroke="none">
<path d="M2460 5113 c-34 -3 -186 -22 -225 -28 -377 -59 -782 -226 -1110 -459
-246 -174 -491 -425 -668 -684 -32 -45 -57 -84 -57 -87 0 -3 -15 -29 -34 -58
-49 -76 -158 -306 -196 -412 -18 -49 -35 -97 -38 -105 -6 -19 -6 -17 -36 -123
-14 -48 -27 -104 -31 -124 -3 -19 -7 -39 -10 -43 -2 -4 -7 -22 -9 -41 -9 -55
-16 -102 -22 -134 -19 -112 -26 -483 -11 -615 4 -36 10 -84 12 -108 7 -57 42
-220 66 -307 94 -330 255 -637 473 -900 53 -63 249 -262 301 -305 300 -248
622 -413 983 -505 95 -23 109 -26 182 -39 77 -13 98 -16 170 -23 96 -10 633
-10 724 -1 64 7 88 11 156 22 313 55 593 159 865 324 75 45 217 143 235 162 3
3 28 23 55 44 28 22 106 96 175 165 276 277 458 576 595 976 17 49 62 227 70
275 3 19 10 58 15 85 5 28 12 70 16 95 4 25 9 701 11 1503 l4 1457 -1313 -2
c-722 -1 -1329 -3 -1348 -5z m-506 -2104 c195 -52 333 -224 342 -424 3 -95
-13 -174 -52 -246 -171 -315 -622 -323 -808 -15 -61 101 -80 237 -51 351 65
247 324 399 569 334z m1462 -4 c327 -93 441 -503 211 -757 -87 -96 -216 -152
-348 -150 -350 4 -568 376 -401 686 51 96 179 199 275 223 94 23 178 22 263
-2z"/>
</g>
</svg>
